<svg width="16" height="16" viewBox="0 0 16 16" fill="none" xmlns="http://www.w3.org/2000/svg">
<path d="M13.1823 10.0049C13.2165 9.92908 13.2003 9.83995 13.1414 9.78111C13.0825 9.72228 12.9934 9.70603 12.9176 9.74033C11.9858 10.1618 10.9478 10.2893 9.94169 10.1059C8.93562 9.92252 8.00932 9.43691 7.2862 8.7138C6.56309 7.99068 6.07748 7.06438 5.89409 6.05831C5.71069 5.05225 5.83822 4.01419 6.25967 3.08242C6.29397 3.0066 6.27772 2.91746 6.21889 2.8586C6.16005 2.79975 6.07092 2.78347 5.99508 2.81775C5.19432 3.17963 4.49331 3.73036 3.95218 4.42271C3.41105 5.11506 3.04595 5.92836 2.88823 6.79282C2.7305 7.65728 2.78484 8.5471 3.04659 9.38594C3.30834 10.2248 3.76968 10.9876 4.39104 11.609C5.01239 12.2303 5.77522 12.6917 6.61406 12.9534C7.4529 13.2152 8.34272 13.2695 9.20718 13.1118C10.0716 12.954 10.8849 12.589 11.5773 12.0478C12.2696 11.5067 12.8204 10.8057 13.1823 10.0049Z" fill="black" stroke="black" stroke-width="0.4" stroke-linejoin="round"/>
</svg>
