<?xml version="1.0" encoding="UTF-8" standalone="no" ?>
<!DOCTYPE svg PUBLIC "-//W3C//DTD SVG 1.1//EN" "http://www.w3.org/Graphics/SVG/1.1/DTD/svg11.dtd">
<svg xmlns="http://www.w3.org/2000/svg" xmlns:xlink="http://www.w3.org/1999/xlink" version="1.1" width="400" height="400" viewBox="0 0 400 400" xml:space="preserve">
<desc>Created with Fabric.js 3.6.2</desc>
<defs>
</defs>
<g transform="matrix(4.17 0 0 4.17 196.88 200)" id="Layer_1"  >
<path style="stroke: none; stroke-width: 1; stroke-dasharray: none; stroke-linecap: butt; stroke-dashoffset: 0; stroke-linejoin: miter; stroke-miterlimit: 4; fill: rgb(124,179,66); fill-rule: nonzero; opacity: 1;"  transform=" translate(-23.25, -24)" d="M 23.9 44 C 12.9 44 4 35 4 24 C 4 13 12.9 4 23.9 4 c 8.2 0 15.7 5.2 18.6 12.9 l -3.7 1.4 C 36.5 12.2 30.5 8 23.9 8 C 15.1 8 8 15.2 8 24 s 7.1 16 15.9 16 c 6.5 0 12.3 -3.9 14.8 -10 l 3.7 1.5 C 39.3 39.1 32.1 44 23.9 44 z" stroke-linecap="round" />
</g>
<g transform="matrix(4.17 0 0 4.17 262.5 166.67)" id="Layer_1"  >
<path style="stroke: none; stroke-width: 1; stroke-dasharray: none; stroke-linecap: butt; stroke-dashoffset: 0; stroke-linejoin: miter; stroke-miterlimit: 4; fill: rgb(124,179,66); fill-rule: nonzero; opacity: 1;"  transform=" translate(-39, -16)" d="M 45 11 l -3 10 l -9 -3.7 L 45 11 z" stroke-linecap="round" />
</g>
</svg>