<svg width="16" height="16" viewBox="0 0 16 16" fill="none" xmlns="http://www.w3.org/2000/svg">
<path d="M3.09756 2.67329C4.36471 1.43382 6.10264 0.7 8 0.7C12.0157 0.7 15.3 3.98431 15.3 8C15.3 12.0157 12.0157 15.3 8 15.3C4.61816 15.3 1.79267 12.9252 0.972488 9.82677C0.948663 9.73676 0.967978 9.64079 1.02477 9.56701C1.08156 9.49323 1.16939 9.45 1.2625 9.45H3.1C3.2277 9.45 3.3414 9.53084 3.38335 9.65144C4.04352 11.5494 5.85904 12.95 8 12.95C10.7218 12.95 12.95 10.7218 12.95 8C12.95 5.27819 10.7218 3.05 8 3.05C6.7119 3.05 5.63229 3.53686 4.75456 4.3303L7.33713 6.91287C7.42293 6.99867 7.4486 7.1277 7.40216 7.23981C7.35573 7.35191 7.24634 7.425 7.125 7.425H1C0.834314 7.425 0.7 7.29069 0.7 7.125V1C0.7 0.878661 0.773092 0.76927 0.885195 0.722836C0.997297 0.676402 1.12633 0.702069 1.21213 0.787868L3.09756 2.67329Z" fill="#99A8B2" stroke="#99A8B2" stroke-width="0.6" stroke-linejoin="round"/>
</svg>
