<svg width="14" height="14" viewBox="0 0 14 14" fill="none" xmlns="http://www.w3.org/2000/svg">
<path d="M8.49158 7.78447C12.9408 3.2207 19.1713 0.5 26 0.5C40.0261 0.5 51.5 11.9739 51.5 26C51.5 40.0261 40.0261 51.5 26 51.5C14.1969 51.5 4.32112 43.2087 1.45415 32.3779C1.41444 32.2279 1.44663 32.068 1.54129 31.945C1.63594 31.8221 1.78232 31.75 1.9375 31.75H8.5C8.71283 31.75 8.90233 31.8847 8.97225 32.0857C11.4059 39.0824 18.0984 44.25 26 44.25C36.0364 44.25 44.25 36.0364 44.25 26C44.25 15.9636 36.0364 7.75 26 7.75C21.0205 7.75 16.8868 9.72401 13.5861 12.879L23.2286 22.5214C23.3716 22.6644 23.4143 22.8795 23.3369 23.0663C23.2596 23.2532 23.0772 23.375 22.875 23.375H1C0.723858 23.375 0.5 23.1511 0.5 22.875V1C0.5 0.797769 0.621822 0.615451 0.808659 0.53806C0.995495 0.46067 1.21056 0.503448 1.35355 0.646447L8.49158 7.78447Z" fill="#99A8B2" stroke="#99A8B2" stroke-linejoin="round"/>
</svg>
