<svg width="16" height="16" viewBox="0 0 16 16" fill="none" xmlns="http://www.w3.org/2000/svg">
<path d="M12.2653 13.6518C14.5137 11.6162 14.6851 8.12938 12.65 5.88166C10.6147 3.63361 7.12891 3.45958 4.88054 5.49518C4.7312 5.63039 4.58806 5.77564 4.45336 5.9283L3.8566 5.26917C3.77992 5.18447 3.65793 5.15469 3.55118 5.19166C3.44269 5.2331 3.3697 5.33105 3.36363 5.44722L3.22981 8.20304C3.22203 8.35957 3.34081 8.49076 3.49849 8.49981L6.25626 8.64346C6.37191 8.64768 6.47779 8.58543 6.52834 8.47998C6.57541 8.3771 6.55844 8.2534 6.48205 8.16902L5.82014 7.43793C5.94468 7.27534 6.08373 7.12685 6.23435 6.99048C7.65864 5.70097 9.86677 5.81033 11.156 7.23431C12.4449 8.65796 12.3355 10.8673 10.9115 12.1565C9.48756 13.4458 7.2786 13.3348 5.98995 11.9115C5.8853 11.7959 5.70574 11.7864 5.58888 11.8922L4.51613 12.8634C4.3999 12.9687 4.39095 13.1488 4.4956 13.2644C6.53063 15.5122 10.0186 15.686 12.2653 13.6518Z" fill="#B2B2B2"/>
</svg>
